{
	"patcher" : 	{
		"fileversion" : 1,
		"rect" : [ 4.0, 44.0, 1676.0, 980.0 ],
		"bglocked" : 0,
		"defrect" : [ 4.0, 44.0, 1676.0, 980.0 ],
		"openrect" : [ 0.0, 0.0, 0.0, 0.0 ],
		"openinpresentation" : 0,
		"default_fontsize" : 12.0,
		"default_fontface" : 0,
		"default_fontname" : "Arial",
		"gridonopen" : 0,
		"gridsize" : [ 15.0, 15.0 ],
		"gridsnaponopen" : 0,
		"toolbarvisible" : 1,
		"boxanimatetime" : 200,
		"imprint" : 0,
		"metadata" : [  ],
		"boxes" : [ 			{
				"box" : 				{
					"maxclass" : "outlet",
					"id" : "obj-43",
					"presentation_rect" : [ 1878.0, 289.0, 0.0, 0.0 ],
					"numinlets" : 1,
					"patching_rect" : [ 1918.0, 285.0, 25.0, 25.0 ],
					"numoutlets" : 0,
					"comment" : ""
				}

			}
, 			{
				"box" : 				{
					"maxclass" : "inlet",
					"id" : "obj-44",
					"outlettype" : [ "" ],
					"presentation_rect" : [ 1878.0, 84.0, 0.0, 0.0 ],
					"numinlets" : 0,
					"patching_rect" : [ 1918.0, 80.0, 25.0, 25.0 ],
					"numoutlets" : 1,
					"comment" : ""
				}

			}
, 			{
				"box" : 				{
					"maxclass" : "message",
					"text" : "bruzed:/Users/bruzed/Documents/bruzedprojects/analoguetransit/giggitygig/vjrig0.2/clips/SparkleRope01_1.avi",
					"linecount" : 6,
					"id" : "obj-45",
					"outlettype" : [ "" ],
					"fontname" : "Arial",
					"presentation_rect" : [ 1877.0, 148.0, 0.0, 0.0 ],
					"numinlets" : 2,
					"fontsize" : 12.0,
					"patching_rect" : [ 1916.0, 144.0, 112.0, 87.0 ],
					"numoutlets" : 1
				}

			}
, 			{
				"box" : 				{
					"maxclass" : "outlet",
					"id" : "obj-46",
					"presentation_rect" : [ 1764.0, 289.0, 0.0, 0.0 ],
					"numinlets" : 1,
					"patching_rect" : [ 1804.0, 285.0, 25.0, 25.0 ],
					"numoutlets" : 0,
					"comment" : ""
				}

			}
, 			{
				"box" : 				{
					"maxclass" : "inlet",
					"id" : "obj-47",
					"outlettype" : [ "" ],
					"presentation_rect" : [ 1764.0, 84.0, 0.0, 0.0 ],
					"numinlets" : 0,
					"patching_rect" : [ 1804.0, 80.0, 25.0, 25.0 ],
					"numoutlets" : 1,
					"comment" : ""
				}

			}
, 			{
				"box" : 				{
					"maxclass" : "message",
					"text" : "bruzed:/Users/bruzed/Documents/bruzedprojects/analoguetransit/giggitygig/vjrig0.2/clips/niceRGBavsdotwall.avi",
					"linecount" : 7,
					"id" : "obj-48",
					"outlettype" : [ "" ],
					"fontname" : "Arial",
					"presentation_rect" : [ 1764.0, 148.0, 0.0, 0.0 ],
					"numinlets" : 2,
					"fontsize" : 12.0,
					"patching_rect" : [ 1804.0, 143.0, 108.0, 101.0 ],
					"numoutlets" : 1
				}

			}
, 			{
				"box" : 				{
					"maxclass" : "outlet",
					"id" : "obj-37",
					"numinlets" : 1,
					"patching_rect" : [ 1668.0, 289.0, 25.0, 25.0 ],
					"numoutlets" : 0,
					"comment" : ""
				}

			}
, 			{
				"box" : 				{
					"maxclass" : "inlet",
					"id" : "obj-38",
					"outlettype" : [ "" ],
					"numinlets" : 0,
					"patching_rect" : [ 1668.0, 84.0, 25.0, 25.0 ],
					"numoutlets" : 1,
					"comment" : ""
				}

			}
, 			{
				"box" : 				{
					"maxclass" : "message",
					"text" : "bruzed:/Users/bruzed/Documents/bruzedprojects/analoguetransit/giggitygig/vjrig0.2/clips/VibrateEye.mov",
					"linecount" : 6,
					"id" : "obj-39",
					"outlettype" : [ "" ],
					"fontname" : "Arial",
					"numinlets" : 2,
					"fontsize" : 12.0,
					"patching_rect" : [ 1667.0, 148.0, 114.0, 87.0 ],
					"numoutlets" : 1
				}

			}
, 			{
				"box" : 				{
					"maxclass" : "outlet",
					"id" : "obj-40",
					"numinlets" : 1,
					"patching_rect" : [ 1554.0, 289.0, 25.0, 25.0 ],
					"numoutlets" : 0,
					"comment" : ""
				}

			}
, 			{
				"box" : 				{
					"maxclass" : "inlet",
					"id" : "obj-41",
					"outlettype" : [ "" ],
					"numinlets" : 0,
					"patching_rect" : [ 1554.0, 84.0, 25.0, 25.0 ],
					"numoutlets" : 1,
					"comment" : ""
				}

			}
, 			{
				"box" : 				{
					"maxclass" : "message",
					"text" : "bruzed:/Users/bruzed/Documents/bruzedprojects/analoguetransit/giggitygig/vjrig0.2/clips/3L_ringaling34.mov",
					"linecount" : 6,
					"id" : "obj-42",
					"outlettype" : [ "" ],
					"fontname" : "Arial",
					"numinlets" : 2,
					"fontsize" : 12.0,
					"patching_rect" : [ 1554.0, 148.0, 107.0, 87.0 ],
					"numoutlets" : 1
				}

			}
, 			{
				"box" : 				{
					"maxclass" : "outlet",
					"id" : "obj-31",
					"numinlets" : 1,
					"patching_rect" : [ 1420.0, 289.0, 25.0, 25.0 ],
					"numoutlets" : 0,
					"comment" : ""
				}

			}
, 			{
				"box" : 				{
					"maxclass" : "inlet",
					"id" : "obj-32",
					"outlettype" : [ "" ],
					"numinlets" : 0,
					"patching_rect" : [ 1420.0, 84.0, 25.0, 25.0 ],
					"numoutlets" : 1,
					"comment" : ""
				}

			}
, 			{
				"box" : 				{
					"maxclass" : "message",
					"text" : "bruzed:/Users/bruzed/Documents/bruzedprojects/analoguetransit/giggitygig/vjrig0.2/clips/3L_neon_motion05.mov",
					"linecount" : 6,
					"id" : "obj-33",
					"outlettype" : [ "" ],
					"fontname" : "Arial",
					"numinlets" : 2,
					"fontsize" : 12.0,
					"patching_rect" : [ 1420.0, 148.0, 112.0, 87.0 ],
					"numoutlets" : 1
				}

			}
, 			{
				"box" : 				{
					"maxclass" : "outlet",
					"id" : "obj-34",
					"numinlets" : 1,
					"patching_rect" : [ 1288.0, 289.0, 25.0, 25.0 ],
					"numoutlets" : 0,
					"comment" : ""
				}

			}
, 			{
				"box" : 				{
					"maxclass" : "inlet",
					"id" : "obj-35",
					"outlettype" : [ "" ],
					"numinlets" : 0,
					"patching_rect" : [ 1288.0, 84.0, 25.0, 25.0 ],
					"numoutlets" : 1,
					"comment" : ""
				}

			}
, 			{
				"box" : 				{
					"maxclass" : "message",
					"text" : "bruzed:/Users/bruzed/Documents/bruzedprojects/analoguetransit/giggitygig/vjrig0.2/clips/SparkleRope01_1.avi",
					"linecount" : 6,
					"id" : "obj-36",
					"outlettype" : [ "" ],
					"fontname" : "Arial",
					"numinlets" : 2,
					"fontsize" : 12.0,
					"patching_rect" : [ 1288.0, 148.0, 124.0, 87.0 ],
					"numoutlets" : 1
				}

			}
, 			{
				"box" : 				{
					"maxclass" : "outlet",
					"id" : "obj-25",
					"numinlets" : 1,
					"patching_rect" : [ 1152.0, 289.0, 25.0, 25.0 ],
					"numoutlets" : 0,
					"comment" : ""
				}

			}
, 			{
				"box" : 				{
					"maxclass" : "inlet",
					"id" : "obj-26",
					"outlettype" : [ "" ],
					"numinlets" : 0,
					"patching_rect" : [ 1152.0, 84.0, 25.0, 25.0 ],
					"numoutlets" : 1,
					"comment" : ""
				}

			}
, 			{
				"box" : 				{
					"maxclass" : "message",
					"text" : "bruzed:/Users/bruzed/Documents/bruzedprojects/analoguetransit/giggitygig/vjrig0.2/clips/3L_neon_motion05.mov",
					"linecount" : 6,
					"id" : "obj-27",
					"outlettype" : [ "" ],
					"fontname" : "Arial",
					"numinlets" : 2,
					"fontsize" : 12.0,
					"patching_rect" : [ 1152.0, 148.0, 121.0, 87.0 ],
					"numoutlets" : 1
				}

			}
, 			{
				"box" : 				{
					"maxclass" : "outlet",
					"id" : "obj-28",
					"numinlets" : 1,
					"patching_rect" : [ 1032.0, 289.0, 25.0, 25.0 ],
					"numoutlets" : 0,
					"comment" : ""
				}

			}
, 			{
				"box" : 				{
					"maxclass" : "inlet",
					"id" : "obj-29",
					"outlettype" : [ "" ],
					"numinlets" : 0,
					"patching_rect" : [ 1032.0, 84.0, 25.0, 25.0 ],
					"numoutlets" : 1,
					"comment" : ""
				}

			}
, 			{
				"box" : 				{
					"maxclass" : "message",
					"text" : "bruzed:/Users/bruzed/Documents/bruzedprojects/analoguetransit/giggitygig/vjrig0.2/clips/Micologyloops.mov9.mov",
					"linecount" : 6,
					"id" : "obj-30",
					"outlettype" : [ "" ],
					"fontname" : "Arial",
					"numinlets" : 2,
					"fontsize" : 12.0,
					"patching_rect" : [ 1032.0, 148.0, 115.0, 87.0 ],
					"numoutlets" : 1
				}

			}
, 			{
				"box" : 				{
					"maxclass" : "outlet",
					"id" : "obj-19",
					"numinlets" : 1,
					"patching_rect" : [ 899.0, 289.0, 25.0, 25.0 ],
					"numoutlets" : 0,
					"comment" : ""
				}

			}
, 			{
				"box" : 				{
					"maxclass" : "inlet",
					"id" : "obj-20",
					"outlettype" : [ "" ],
					"numinlets" : 0,
					"patching_rect" : [ 899.0, 84.0, 25.0, 25.0 ],
					"numoutlets" : 1,
					"comment" : ""
				}

			}
, 			{
				"box" : 				{
					"maxclass" : "message",
					"text" : "bruzed:/Users/bruzed/Documents/bruzedprojects/analoguetransit/giggitygig/vjrig0.2/clips/3L_neon_motion11.mov",
					"linecount" : 6,
					"id" : "obj-21",
					"outlettype" : [ "" ],
					"fontname" : "Arial",
					"numinlets" : 2,
					"fontsize" : 12.0,
					"patching_rect" : [ 899.0, 148.0, 118.0, 87.0 ],
					"numoutlets" : 1
				}

			}
, 			{
				"box" : 				{
					"maxclass" : "outlet",
					"id" : "obj-22",
					"numinlets" : 1,
					"patching_rect" : [ 779.0, 289.0, 25.0, 25.0 ],
					"numoutlets" : 0,
					"comment" : ""
				}

			}
, 			{
				"box" : 				{
					"maxclass" : "inlet",
					"id" : "obj-23",
					"outlettype" : [ "" ],
					"numinlets" : 0,
					"patching_rect" : [ 779.0, 84.0, 25.0, 25.0 ],
					"numoutlets" : 1,
					"comment" : ""
				}

			}
, 			{
				"box" : 				{
					"maxclass" : "message",
					"text" : "bruzed:/Users/bruzed/Documents/bruzedprojects/analoguetransit/giggitygig/vjrig0.2/clips/3L_neon_motion22.mov",
					"linecount" : 6,
					"id" : "obj-24",
					"outlettype" : [ "" ],
					"fontname" : "Arial",
					"numinlets" : 2,
					"fontsize" : 12.0,
					"patching_rect" : [ 779.0, 148.0, 114.0, 87.0 ],
					"numoutlets" : 1
				}

			}
, 			{
				"box" : 				{
					"maxclass" : "outlet",
					"id" : "obj-11",
					"numinlets" : 1,
					"patching_rect" : [ 658.0, 289.0, 25.0, 25.0 ],
					"numoutlets" : 0,
					"comment" : ""
				}

			}
, 			{
				"box" : 				{
					"maxclass" : "inlet",
					"id" : "obj-12",
					"outlettype" : [ "" ],
					"numinlets" : 0,
					"patching_rect" : [ 658.0, 84.0, 25.0, 25.0 ],
					"numoutlets" : 1,
					"comment" : ""
				}

			}
, 			{
				"box" : 				{
					"maxclass" : "message",
					"text" : "bruzed:/Users/bruzed/Documents/bruzedprojects/analoguetransit/giggitygig/vjrig0.2/clips/opart08.mov",
					"linecount" : 6,
					"id" : "obj-13",
					"outlettype" : [ "" ],
					"fontname" : "Arial",
					"numinlets" : 2,
					"fontsize" : 12.0,
					"patching_rect" : [ 658.0, 148.0, 105.0, 87.0 ],
					"numoutlets" : 1
				}

			}
, 			{
				"box" : 				{
					"maxclass" : "outlet",
					"id" : "obj-14",
					"numinlets" : 1,
					"patching_rect" : [ 541.0, 289.0, 25.0, 25.0 ],
					"numoutlets" : 0,
					"comment" : ""
				}

			}
, 			{
				"box" : 				{
					"maxclass" : "inlet",
					"id" : "obj-17",
					"outlettype" : [ "" ],
					"numinlets" : 0,
					"patching_rect" : [ 541.0, 84.0, 25.0, 25.0 ],
					"numoutlets" : 1,
					"comment" : ""
				}

			}
, 			{
				"box" : 				{
					"maxclass" : "message",
					"text" : "bruzed:/Users/bruzed/Documents/bruzedprojects/analoguetransit/giggitygig/vjrig0.2/clips/3L_neon_motion11.mov",
					"linecount" : 6,
					"id" : "obj-18",
					"outlettype" : [ "" ],
					"fontname" : "Arial",
					"numinlets" : 2,
					"fontsize" : 12.0,
					"patching_rect" : [ 541.0, 148.0, 112.0, 87.0 ],
					"numoutlets" : 1
				}

			}
, 			{
				"box" : 				{
					"maxclass" : "outlet",
					"id" : "obj-8",
					"numinlets" : 1,
					"patching_rect" : [ 406.0, 289.0, 25.0, 25.0 ],
					"numoutlets" : 0,
					"comment" : ""
				}

			}
, 			{
				"box" : 				{
					"maxclass" : "inlet",
					"id" : "obj-9",
					"outlettype" : [ "" ],
					"numinlets" : 0,
					"patching_rect" : [ 406.0, 84.0, 25.0, 25.0 ],
					"numoutlets" : 1,
					"comment" : ""
				}

			}
, 			{
				"box" : 				{
					"maxclass" : "message",
					"text" : "bruzed:/Users/bruzed/Documents/bruzedprojects/analoguetransit/giggitygig/vjrig0.2/clips/3L_neon_motion22.mov",
					"linecount" : 6,
					"id" : "obj-10",
					"outlettype" : [ "" ],
					"fontname" : "Arial",
					"numinlets" : 2,
					"fontsize" : 12.0,
					"patching_rect" : [ 406.0, 148.0, 113.0, 87.0 ],
					"numoutlets" : 1
				}

			}
, 			{
				"box" : 				{
					"maxclass" : "outlet",
					"id" : "obj-4",
					"numinlets" : 1,
					"patching_rect" : [ 291.0, 289.0, 25.0, 25.0 ],
					"numoutlets" : 0,
					"comment" : ""
				}

			}
, 			{
				"box" : 				{
					"maxclass" : "inlet",
					"id" : "obj-5",
					"outlettype" : [ "" ],
					"numinlets" : 0,
					"patching_rect" : [ 291.0, 84.0, 25.0, 25.0 ],
					"numoutlets" : 1,
					"comment" : ""
				}

			}
, 			{
				"box" : 				{
					"maxclass" : "message",
					"text" : "bruzed:/Users/bruzed/Documents/bruzedprojects/analoguetransit/giggitygig/vjrig0.2/clips/3L_ringaling01.mov",
					"linecount" : 6,
					"id" : "obj-7",
					"outlettype" : [ "" ],
					"fontname" : "Arial",
					"numinlets" : 2,
					"fontsize" : 12.0,
					"patching_rect" : [ 291.0, 148.0, 110.0, 87.0 ],
					"numoutlets" : 1
				}

			}
, 			{
				"box" : 				{
					"maxclass" : "outlet",
					"id" : "obj-1",
					"numinlets" : 1,
					"patching_rect" : [ 157.0, 289.0, 25.0, 25.0 ],
					"numoutlets" : 0,
					"comment" : ""
				}

			}
, 			{
				"box" : 				{
					"maxclass" : "inlet",
					"id" : "obj-2",
					"outlettype" : [ "" ],
					"numinlets" : 0,
					"patching_rect" : [ 157.0, 84.0, 25.0, 25.0 ],
					"numoutlets" : 1,
					"comment" : ""
				}

			}
, 			{
				"box" : 				{
					"maxclass" : "message",
					"text" : "bruzed:/Users/bruzed/Documents/bruzedprojects/analoguetransit/giggitygig/vjrig0.2/clips/3L_cables16.mov",
					"linecount" : 6,
					"id" : "obj-3",
					"outlettype" : [ "" ],
					"fontname" : "Arial",
					"numinlets" : 2,
					"fontsize" : 12.0,
					"patching_rect" : [ 157.0, 148.0, 106.0, 87.0 ],
					"numoutlets" : 1
				}

			}
, 			{
				"box" : 				{
					"maxclass" : "outlet",
					"id" : "obj-15",
					"numinlets" : 1,
					"patching_rect" : [ 47.0, 289.0, 25.0, 25.0 ],
					"numoutlets" : 0,
					"comment" : ""
				}

			}
, 			{
				"box" : 				{
					"maxclass" : "inlet",
					"id" : "obj-6",
					"outlettype" : [ "" ],
					"numinlets" : 0,
					"patching_rect" : [ 47.0, 84.0, 25.0, 25.0 ],
					"numoutlets" : 1,
					"comment" : ""
				}

			}
, 			{
				"box" : 				{
					"maxclass" : "message",
					"text" : "bruzed:/Users/bruzed/Documents/bruzedprojects/analoguetransit/giggitygig/vjrig0.2/clips/3L_blox03.mov",
					"linecount" : 6,
					"id" : "obj-16",
					"outlettype" : [ "" ],
					"fontname" : "Arial",
					"numinlets" : 2,
					"fontsize" : 12.0,
					"patching_rect" : [ 47.0, 148.0, 107.0, 87.0 ],
					"numoutlets" : 1
				}

			}
 ],
		"lines" : [ 			{
				"patchline" : 				{
					"source" : [ "obj-47", 0 ],
					"destination" : [ "obj-48", 0 ],
					"hidden" : 0,
					"midpoints" : [  ]
				}

			}
, 			{
				"patchline" : 				{
					"source" : [ "obj-48", 0 ],
					"destination" : [ "obj-46", 0 ],
					"hidden" : 0,
					"midpoints" : [  ]
				}

			}
, 			{
				"patchline" : 				{
					"source" : [ "obj-45", 0 ],
					"destination" : [ "obj-43", 0 ],
					"hidden" : 0,
					"midpoints" : [  ]
				}

			}
, 			{
				"patchline" : 				{
					"source" : [ "obj-44", 0 ],
					"destination" : [ "obj-45", 0 ],
					"hidden" : 0,
					"midpoints" : [  ]
				}

			}
, 			{
				"patchline" : 				{
					"source" : [ "obj-6", 0 ],
					"destination" : [ "obj-16", 0 ],
					"hidden" : 0,
					"midpoints" : [  ]
				}

			}
, 			{
				"patchline" : 				{
					"source" : [ "obj-16", 0 ],
					"destination" : [ "obj-15", 0 ],
					"hidden" : 0,
					"midpoints" : [  ]
				}

			}
, 			{
				"patchline" : 				{
					"source" : [ "obj-3", 0 ],
					"destination" : [ "obj-1", 0 ],
					"hidden" : 0,
					"midpoints" : [  ]
				}

			}
, 			{
				"patchline" : 				{
					"source" : [ "obj-2", 0 ],
					"destination" : [ "obj-3", 0 ],
					"hidden" : 0,
					"midpoints" : [  ]
				}

			}
, 			{
				"patchline" : 				{
					"source" : [ "obj-5", 0 ],
					"destination" : [ "obj-7", 0 ],
					"hidden" : 0,
					"midpoints" : [  ]
				}

			}
, 			{
				"patchline" : 				{
					"source" : [ "obj-7", 0 ],
					"destination" : [ "obj-4", 0 ],
					"hidden" : 0,
					"midpoints" : [  ]
				}

			}
, 			{
				"patchline" : 				{
					"source" : [ "obj-10", 0 ],
					"destination" : [ "obj-8", 0 ],
					"hidden" : 0,
					"midpoints" : [  ]
				}

			}
, 			{
				"patchline" : 				{
					"source" : [ "obj-9", 0 ],
					"destination" : [ "obj-10", 0 ],
					"hidden" : 0,
					"midpoints" : [  ]
				}

			}
, 			{
				"patchline" : 				{
					"source" : [ "obj-12", 0 ],
					"destination" : [ "obj-13", 0 ],
					"hidden" : 0,
					"midpoints" : [  ]
				}

			}
, 			{
				"patchline" : 				{
					"source" : [ "obj-13", 0 ],
					"destination" : [ "obj-11", 0 ],
					"hidden" : 0,
					"midpoints" : [  ]
				}

			}
, 			{
				"patchline" : 				{
					"source" : [ "obj-18", 0 ],
					"destination" : [ "obj-14", 0 ],
					"hidden" : 0,
					"midpoints" : [  ]
				}

			}
, 			{
				"patchline" : 				{
					"source" : [ "obj-17", 0 ],
					"destination" : [ "obj-18", 0 ],
					"hidden" : 0,
					"midpoints" : [  ]
				}

			}
, 			{
				"patchline" : 				{
					"source" : [ "obj-23", 0 ],
					"destination" : [ "obj-24", 0 ],
					"hidden" : 0,
					"midpoints" : [  ]
				}

			}
, 			{
				"patchline" : 				{
					"source" : [ "obj-24", 0 ],
					"destination" : [ "obj-22", 0 ],
					"hidden" : 0,
					"midpoints" : [  ]
				}

			}
, 			{
				"patchline" : 				{
					"source" : [ "obj-21", 0 ],
					"destination" : [ "obj-19", 0 ],
					"hidden" : 0,
					"midpoints" : [  ]
				}

			}
, 			{
				"patchline" : 				{
					"source" : [ "obj-20", 0 ],
					"destination" : [ "obj-21", 0 ],
					"hidden" : 0,
					"midpoints" : [  ]
				}

			}
, 			{
				"patchline" : 				{
					"source" : [ "obj-26", 0 ],
					"destination" : [ "obj-27", 0 ],
					"hidden" : 0,
					"midpoints" : [  ]
				}

			}
, 			{
				"patchline" : 				{
					"source" : [ "obj-27", 0 ],
					"destination" : [ "obj-25", 0 ],
					"hidden" : 0,
					"midpoints" : [  ]
				}

			}
, 			{
				"patchline" : 				{
					"source" : [ "obj-30", 0 ],
					"destination" : [ "obj-28", 0 ],
					"hidden" : 0,
					"midpoints" : [  ]
				}

			}
, 			{
				"patchline" : 				{
					"source" : [ "obj-29", 0 ],
					"destination" : [ "obj-30", 0 ],
					"hidden" : 0,
					"midpoints" : [  ]
				}

			}
, 			{
				"patchline" : 				{
					"source" : [ "obj-35", 0 ],
					"destination" : [ "obj-36", 0 ],
					"hidden" : 0,
					"midpoints" : [  ]
				}

			}
, 			{
				"patchline" : 				{
					"source" : [ "obj-36", 0 ],
					"destination" : [ "obj-34", 0 ],
					"hidden" : 0,
					"midpoints" : [  ]
				}

			}
, 			{
				"patchline" : 				{
					"source" : [ "obj-33", 0 ],
					"destination" : [ "obj-31", 0 ],
					"hidden" : 0,
					"midpoints" : [  ]
				}

			}
, 			{
				"patchline" : 				{
					"source" : [ "obj-32", 0 ],
					"destination" : [ "obj-33", 0 ],
					"hidden" : 0,
					"midpoints" : [  ]
				}

			}
, 			{
				"patchline" : 				{
					"source" : [ "obj-38", 0 ],
					"destination" : [ "obj-39", 0 ],
					"hidden" : 0,
					"midpoints" : [  ]
				}

			}
, 			{
				"patchline" : 				{
					"source" : [ "obj-39", 0 ],
					"destination" : [ "obj-37", 0 ],
					"hidden" : 0,
					"midpoints" : [  ]
				}

			}
, 			{
				"patchline" : 				{
					"source" : [ "obj-42", 0 ],
					"destination" : [ "obj-40", 0 ],
					"hidden" : 0,
					"midpoints" : [  ]
				}

			}
, 			{
				"patchline" : 				{
					"source" : [ "obj-41", 0 ],
					"destination" : [ "obj-42", 0 ],
					"hidden" : 0,
					"midpoints" : [  ]
				}

			}
 ]
	}

}
