{
	"patcher" : 	{
		"fileversion" : 1,
		"rect" : [ 88.0, 44.0, 1509.0, 980.0 ],
		"bglocked" : 0,
		"defrect" : [ 88.0, 44.0, 1509.0, 980.0 ],
		"openrect" : [ 0.0, 0.0, 0.0, 0.0 ],
		"openinpresentation" : 0,
		"default_fontsize" : 12.0,
		"default_fontface" : 0,
		"default_fontname" : "Arial",
		"gridonopen" : 0,
		"gridsize" : [ 15.0, 15.0 ],
		"gridsnaponopen" : 0,
		"toolbarvisible" : 1,
		"boxanimatetime" : 200,
		"imprint" : 0,
		"metadata" : [  ],
		"boxes" : [ 			{
				"box" : 				{
					"maxclass" : "button",
					"id" : "obj-35",
					"outlettype" : [ "bang" ],
					"numinlets" : 1,
					"patching_rect" : [ 65.0, 720.0, 20.0, 20.0 ],
					"numoutlets" : 1
				}

			}
, 			{
				"box" : 				{
					"maxclass" : "outlet",
					"id" : "obj-32",
					"numinlets" : 1,
					"patching_rect" : [ 739.0, 731.0, 25.0, 25.0 ],
					"numoutlets" : 0,
					"comment" : ""
				}

			}
, 			{
				"box" : 				{
					"maxclass" : "outlet",
					"id" : "obj-33",
					"numinlets" : 1,
					"patching_rect" : [ 696.0, 731.0, 25.0, 25.0 ],
					"numoutlets" : 0,
					"comment" : ""
				}

			}
, 			{
				"box" : 				{
					"maxclass" : "outlet",
					"id" : "obj-30",
					"numinlets" : 1,
					"patching_rect" : [ 656.0, 731.0, 25.0, 25.0 ],
					"numoutlets" : 0,
					"comment" : ""
				}

			}
, 			{
				"box" : 				{
					"maxclass" : "outlet",
					"id" : "obj-31",
					"numinlets" : 1,
					"patching_rect" : [ 613.0, 731.0, 25.0, 25.0 ],
					"numoutlets" : 0,
					"comment" : ""
				}

			}
, 			{
				"box" : 				{
					"maxclass" : "outlet",
					"id" : "obj-27",
					"numinlets" : 1,
					"patching_rect" : [ 573.0, 731.0, 25.0, 25.0 ],
					"numoutlets" : 0,
					"comment" : ""
				}

			}
, 			{
				"box" : 				{
					"maxclass" : "outlet",
					"id" : "obj-29",
					"numinlets" : 1,
					"patching_rect" : [ 530.0, 731.0, 25.0, 25.0 ],
					"numoutlets" : 0,
					"comment" : ""
				}

			}
, 			{
				"box" : 				{
					"maxclass" : "outlet",
					"id" : "obj-25",
					"numinlets" : 1,
					"patching_rect" : [ 490.0, 731.0, 25.0, 25.0 ],
					"numoutlets" : 0,
					"comment" : ""
				}

			}
, 			{
				"box" : 				{
					"maxclass" : "outlet",
					"id" : "obj-26",
					"numinlets" : 1,
					"patching_rect" : [ 447.0, 731.0, 25.0, 25.0 ],
					"numoutlets" : 0,
					"comment" : ""
				}

			}
, 			{
				"box" : 				{
					"maxclass" : "outlet",
					"id" : "obj-23",
					"numinlets" : 1,
					"patching_rect" : [ 407.0, 731.0, 25.0, 25.0 ],
					"numoutlets" : 0,
					"comment" : ""
				}

			}
, 			{
				"box" : 				{
					"maxclass" : "outlet",
					"id" : "obj-24",
					"numinlets" : 1,
					"patching_rect" : [ 364.0, 731.0, 25.0, 25.0 ],
					"numoutlets" : 0,
					"comment" : ""
				}

			}
, 			{
				"box" : 				{
					"maxclass" : "outlet",
					"id" : "obj-21",
					"numinlets" : 1,
					"patching_rect" : [ 324.0, 731.0, 25.0, 25.0 ],
					"numoutlets" : 0,
					"comment" : ""
				}

			}
, 			{
				"box" : 				{
					"maxclass" : "outlet",
					"id" : "obj-22",
					"numinlets" : 1,
					"patching_rect" : [ 281.0, 731.0, 25.0, 25.0 ],
					"numoutlets" : 0,
					"comment" : ""
				}

			}
, 			{
				"box" : 				{
					"maxclass" : "outlet",
					"id" : "obj-19",
					"presentation_rect" : [ 241.0, 671.0, 0.0, 0.0 ],
					"numinlets" : 1,
					"patching_rect" : [ 241.0, 731.0, 25.0, 25.0 ],
					"numoutlets" : 0,
					"comment" : ""
				}

			}
, 			{
				"box" : 				{
					"maxclass" : "outlet",
					"id" : "obj-20",
					"presentation_rect" : [ 198.0, 671.0, 0.0, 0.0 ],
					"numinlets" : 1,
					"patching_rect" : [ 198.0, 731.0, 25.0, 25.0 ],
					"numoutlets" : 0,
					"comment" : ""
				}

			}
, 			{
				"box" : 				{
					"maxclass" : "message",
					"text" : "15",
					"id" : "obj-109",
					"outlettype" : [ "" ],
					"fontname" : "Arial",
					"numinlets" : 2,
					"fontsize" : 12.0,
					"patching_rect" : [ 621.0, 626.0, 32.5, 18.0 ],
					"numoutlets" : 1
				}

			}
, 			{
				"box" : 				{
					"maxclass" : "message",
					"text" : "14",
					"id" : "obj-107",
					"outlettype" : [ "" ],
					"fontname" : "Arial",
					"numinlets" : 2,
					"fontsize" : 12.0,
					"patching_rect" : [ 587.0, 626.0, 32.5, 18.0 ],
					"numoutlets" : 1
				}

			}
, 			{
				"box" : 				{
					"maxclass" : "message",
					"text" : "13",
					"id" : "obj-2",
					"outlettype" : [ "" ],
					"fontname" : "Arial",
					"numinlets" : 2,
					"fontsize" : 12.0,
					"patching_rect" : [ 553.0, 626.0, 32.5, 18.0 ],
					"numoutlets" : 1
				}

			}
, 			{
				"box" : 				{
					"maxclass" : "message",
					"text" : "12",
					"id" : "obj-3",
					"outlettype" : [ "" ],
					"fontname" : "Arial",
					"numinlets" : 2,
					"fontsize" : 12.0,
					"patching_rect" : [ 519.0, 626.0, 32.5, 18.0 ],
					"numoutlets" : 1
				}

			}
, 			{
				"box" : 				{
					"maxclass" : "message",
					"text" : "11",
					"id" : "obj-4",
					"outlettype" : [ "" ],
					"fontname" : "Arial",
					"numinlets" : 2,
					"fontsize" : 12.0,
					"patching_rect" : [ 485.0, 626.0, 32.5, 18.0 ],
					"numoutlets" : 1
				}

			}
, 			{
				"box" : 				{
					"maxclass" : "message",
					"text" : "10",
					"id" : "obj-5",
					"outlettype" : [ "" ],
					"fontname" : "Arial",
					"numinlets" : 2,
					"fontsize" : 12.0,
					"patching_rect" : [ 451.0, 626.0, 32.5, 18.0 ],
					"numoutlets" : 1
				}

			}
, 			{
				"box" : 				{
					"maxclass" : "message",
					"text" : "9",
					"id" : "obj-6",
					"outlettype" : [ "" ],
					"fontname" : "Arial",
					"numinlets" : 2,
					"fontsize" : 12.0,
					"patching_rect" : [ 417.0, 626.0, 32.5, 18.0 ],
					"numoutlets" : 1
				}

			}
, 			{
				"box" : 				{
					"maxclass" : "message",
					"text" : "8",
					"id" : "obj-7",
					"outlettype" : [ "" ],
					"fontname" : "Arial",
					"numinlets" : 2,
					"fontsize" : 12.0,
					"patching_rect" : [ 383.0, 626.0, 32.5, 18.0 ],
					"numoutlets" : 1
				}

			}
, 			{
				"box" : 				{
					"maxclass" : "message",
					"text" : "7",
					"id" : "obj-8",
					"outlettype" : [ "" ],
					"fontname" : "Arial",
					"numinlets" : 2,
					"fontsize" : 12.0,
					"patching_rect" : [ 348.0, 626.0, 32.5, 18.0 ],
					"numoutlets" : 1
				}

			}
, 			{
				"box" : 				{
					"maxclass" : "message",
					"text" : "6",
					"id" : "obj-9",
					"outlettype" : [ "" ],
					"fontname" : "Arial",
					"numinlets" : 2,
					"fontsize" : 12.0,
					"patching_rect" : [ 315.0, 626.0, 32.5, 18.0 ],
					"numoutlets" : 1
				}

			}
, 			{
				"box" : 				{
					"maxclass" : "message",
					"text" : "5",
					"id" : "obj-10",
					"outlettype" : [ "" ],
					"fontname" : "Arial",
					"numinlets" : 2,
					"fontsize" : 12.0,
					"patching_rect" : [ 281.0, 626.0, 32.5, 18.0 ],
					"numoutlets" : 1
				}

			}
, 			{
				"box" : 				{
					"maxclass" : "message",
					"text" : "4",
					"id" : "obj-11",
					"outlettype" : [ "" ],
					"fontname" : "Arial",
					"numinlets" : 2,
					"fontsize" : 12.0,
					"patching_rect" : [ 247.0, 626.0, 32.5, 18.0 ],
					"numoutlets" : 1
				}

			}
, 			{
				"box" : 				{
					"maxclass" : "message",
					"text" : "3",
					"id" : "obj-12",
					"outlettype" : [ "" ],
					"fontname" : "Arial",
					"numinlets" : 2,
					"fontsize" : 12.0,
					"patching_rect" : [ 213.0, 626.0, 32.5, 18.0 ],
					"numoutlets" : 1
				}

			}
, 			{
				"box" : 				{
					"maxclass" : "message",
					"text" : "2",
					"id" : "obj-13",
					"outlettype" : [ "" ],
					"fontname" : "Arial",
					"numinlets" : 2,
					"fontsize" : 12.0,
					"patching_rect" : [ 179.0, 626.0, 32.5, 18.0 ],
					"numoutlets" : 1
				}

			}
, 			{
				"box" : 				{
					"maxclass" : "message",
					"text" : "1",
					"id" : "obj-14",
					"outlettype" : [ "" ],
					"fontname" : "Arial",
					"numinlets" : 2,
					"fontsize" : 12.0,
					"patching_rect" : [ 145.0, 626.0, 32.5, 18.0 ],
					"numoutlets" : 1
				}

			}
, 			{
				"box" : 				{
					"maxclass" : "message",
					"text" : "0",
					"id" : "obj-76",
					"outlettype" : [ "" ],
					"fontname" : "Arial",
					"numinlets" : 2,
					"fontsize" : 12.0,
					"patching_rect" : [ 111.0, 626.0, 32.5, 18.0 ],
					"numoutlets" : 1
				}

			}
, 			{
				"box" : 				{
					"maxclass" : "outlet",
					"id" : "obj-97",
					"numinlets" : 1,
					"patching_rect" : [ 158.0, 731.0, 25.0, 25.0 ],
					"numoutlets" : 0,
					"comment" : ""
				}

			}
, 			{
				"box" : 				{
					"maxclass" : "outlet",
					"id" : "obj-96",
					"numinlets" : 1,
					"patching_rect" : [ 115.0, 731.0, 25.0, 25.0 ],
					"numoutlets" : 0,
					"comment" : ""
				}

			}
, 			{
				"box" : 				{
					"maxclass" : "newobj",
					"text" : "if $i1 == 39 && $i2 > 0 then 1",
					"id" : "obj-88",
					"outlettype" : [ "" ],
					"fontname" : "Arial",
					"numinlets" : 2,
					"fontsize" : 12.0,
					"patching_rect" : [ 1361.0, 489.0, 166.0, 20.0 ],
					"numoutlets" : 1
				}

			}
, 			{
				"box" : 				{
					"maxclass" : "newobj",
					"text" : "if $i1 == 38 && $i2 > 0 then 1",
					"id" : "obj-89",
					"outlettype" : [ "" ],
					"fontname" : "Arial",
					"numinlets" : 2,
					"fontsize" : 12.0,
					"patching_rect" : [ 1169.0, 489.0, 166.0, 20.0 ],
					"numoutlets" : 1
				}

			}
, 			{
				"box" : 				{
					"maxclass" : "newobj",
					"text" : "if $i1 == 43 && $i2 > 0 then 1",
					"id" : "obj-90",
					"outlettype" : [ "" ],
					"fontname" : "Arial",
					"numinlets" : 2,
					"fontsize" : 12.0,
					"patching_rect" : [ 980.0, 489.0, 166.0, 20.0 ],
					"numoutlets" : 1
				}

			}
, 			{
				"box" : 				{
					"maxclass" : "newobj",
					"text" : "if $i1 == 42 && $i2 > 0 then 1",
					"id" : "obj-91",
					"outlettype" : [ "" ],
					"fontname" : "Arial",
					"numinlets" : 2,
					"fontsize" : 12.0,
					"patching_rect" : [ 788.0, 489.0, 166.0, 20.0 ],
					"numoutlets" : 1
				}

			}
, 			{
				"box" : 				{
					"maxclass" : "newobj",
					"text" : "if $i1 == 47 && $i2 > 0 then 1",
					"id" : "obj-92",
					"outlettype" : [ "" ],
					"fontname" : "Arial",
					"numinlets" : 2,
					"fontsize" : 12.0,
					"patching_rect" : [ 593.0, 489.0, 166.0, 20.0 ],
					"numoutlets" : 1
				}

			}
, 			{
				"box" : 				{
					"maxclass" : "newobj",
					"text" : "if $i1 == 46 && $i2 > 0 then 1",
					"id" : "obj-93",
					"outlettype" : [ "" ],
					"fontname" : "Arial",
					"numinlets" : 2,
					"fontsize" : 12.0,
					"patching_rect" : [ 399.0, 489.0, 166.0, 20.0 ],
					"numoutlets" : 1
				}

			}
, 			{
				"box" : 				{
					"maxclass" : "newobj",
					"text" : "if $i1 == 51 && $i2 > 0 then 1",
					"id" : "obj-94",
					"outlettype" : [ "" ],
					"fontname" : "Arial",
					"numinlets" : 2,
					"fontsize" : 12.0,
					"patching_rect" : [ 208.0, 488.0, 166.0, 20.0 ],
					"numoutlets" : 1
				}

			}
, 			{
				"box" : 				{
					"maxclass" : "newobj",
					"text" : "if $i1 == 50 && $i2 > 0 then 1",
					"id" : "obj-95",
					"outlettype" : [ "" ],
					"fontname" : "Arial",
					"numinlets" : 2,
					"fontsize" : 12.0,
					"patching_rect" : [ 12.0, 489.0, 166.0, 20.0 ],
					"numoutlets" : 1
				}

			}
, 			{
				"box" : 				{
					"maxclass" : "newobj",
					"text" : "if $i1 == 37 && $i2 > 0 then 1",
					"id" : "obj-85",
					"outlettype" : [ "" ],
					"fontname" : "Arial",
					"numinlets" : 2,
					"fontsize" : 12.0,
					"patching_rect" : [ 1361.0, 416.0, 166.0, 20.0 ],
					"numoutlets" : 1
				}

			}
, 			{
				"box" : 				{
					"maxclass" : "newobj",
					"text" : "if $i1 == 36 && $i2 > 0 then 1",
					"id" : "obj-86",
					"outlettype" : [ "" ],
					"fontname" : "Arial",
					"numinlets" : 2,
					"fontsize" : 12.0,
					"patching_rect" : [ 1169.0, 415.0, 166.0, 20.0 ],
					"numoutlets" : 1
				}

			}
, 			{
				"box" : 				{
					"maxclass" : "newobj",
					"text" : "if $i1 == 41 && $i2 > 0 then 1",
					"id" : "obj-83",
					"outlettype" : [ "" ],
					"fontname" : "Arial",
					"numinlets" : 2,
					"fontsize" : 12.0,
					"patching_rect" : [ 981.0, 416.0, 166.0, 20.0 ],
					"numoutlets" : 1
				}

			}
, 			{
				"box" : 				{
					"maxclass" : "newobj",
					"text" : "if $i1 == 40 && $i2 > 0 then 1",
					"id" : "obj-84",
					"outlettype" : [ "" ],
					"fontname" : "Arial",
					"numinlets" : 2,
					"fontsize" : 12.0,
					"patching_rect" : [ 788.0, 416.0, 166.0, 20.0 ],
					"numoutlets" : 1
				}

			}
, 			{
				"box" : 				{
					"maxclass" : "newobj",
					"text" : "if $i1 == 45 && $i2 > 0 then 1",
					"id" : "obj-81",
					"outlettype" : [ "" ],
					"fontname" : "Arial",
					"numinlets" : 2,
					"fontsize" : 12.0,
					"patching_rect" : [ 593.0, 416.0, 166.0, 20.0 ],
					"numoutlets" : 1
				}

			}
, 			{
				"box" : 				{
					"maxclass" : "newobj",
					"text" : "if $i1 == 44 && $i2 > 0 then 1",
					"id" : "obj-82",
					"outlettype" : [ "" ],
					"fontname" : "Arial",
					"numinlets" : 2,
					"fontsize" : 12.0,
					"patching_rect" : [ 399.0, 416.0, 166.0, 20.0 ],
					"numoutlets" : 1
				}

			}
, 			{
				"box" : 				{
					"maxclass" : "newobj",
					"text" : "if $i1 == 49 && $i2 > 0 then 1",
					"id" : "obj-80",
					"outlettype" : [ "" ],
					"fontname" : "Arial",
					"numinlets" : 2,
					"fontsize" : 12.0,
					"patching_rect" : [ 207.0, 416.0, 166.0, 20.0 ],
					"numoutlets" : 1
				}

			}
, 			{
				"box" : 				{
					"maxclass" : "newobj",
					"text" : "if $i1 == 48 && $i2 > 0 then 1",
					"id" : "obj-74",
					"outlettype" : [ "" ],
					"fontname" : "Arial",
					"numinlets" : 2,
					"fontsize" : 12.0,
					"patching_rect" : [ 12.0, 416.0, 166.0, 20.0 ],
					"numoutlets" : 1
				}

			}
, 			{
				"box" : 				{
					"maxclass" : "inlet",
					"id" : "obj-1",
					"outlettype" : [ "" ],
					"numinlets" : 0,
					"patching_rect" : [ 263.0, 49.0, 25.0, 25.0 ],
					"numoutlets" : 1,
					"comment" : ""
				}

			}
, 			{
				"box" : 				{
					"maxclass" : "newobj",
					"text" : "unpack",
					"id" : "obj-16",
					"outlettype" : [ "int", "int" ],
					"fontname" : "Arial",
					"numinlets" : 1,
					"fontsize" : 11.595187,
					"patching_rect" : [ 263.0, 114.0, 56.0, 20.0 ],
					"numoutlets" : 2
				}

			}
, 			{
				"box" : 				{
					"maxclass" : "number",
					"id" : "obj-28",
					"outlettype" : [ "int", "bang" ],
					"fontname" : "Arial",
					"numinlets" : 1,
					"fontsize" : 11.595187,
					"patching_rect" : [ 263.0, 151.0, 36.0, 20.0 ],
					"numoutlets" : 2
				}

			}
, 			{
				"box" : 				{
					"maxclass" : "button",
					"id" : "obj-39",
					"outlettype" : [ "bang" ],
					"numinlets" : 1,
					"patching_rect" : [ 263.0, 203.0, 20.0, 20.0 ],
					"numoutlets" : 1
				}

			}
, 			{
				"box" : 				{
					"maxclass" : "number",
					"id" : "obj-41",
					"outlettype" : [ "int", "bang" ],
					"fontname" : "Arial",
					"numinlets" : 1,
					"fontsize" : 11.595187,
					"patching_rect" : [ 300.0, 151.0, 36.0, 20.0 ],
					"numoutlets" : 2
				}

			}
, 			{
				"box" : 				{
					"maxclass" : "number",
					"id" : "obj-42",
					"outlettype" : [ "int", "bang" ],
					"fontname" : "Arial",
					"numinlets" : 1,
					"fontsize" : 11.595187,
					"patching_rect" : [ 374.166626, 151.0, 36.0, 20.0 ],
					"numoutlets" : 2
				}

			}
, 			{
				"box" : 				{
					"maxclass" : "number",
					"id" : "obj-67",
					"outlettype" : [ "int", "bang" ],
					"fontname" : "Arial",
					"numinlets" : 1,
					"fontsize" : 11.595187,
					"patching_rect" : [ 337.166687, 151.0, 36.0, 20.0 ],
					"numoutlets" : 2
				}

			}
, 			{
				"box" : 				{
					"maxclass" : "newobj",
					"text" : "unpack",
					"id" : "obj-87",
					"outlettype" : [ "int", "int" ],
					"fontname" : "Arial",
					"numinlets" : 1,
					"fontsize" : 11.595187,
					"patching_rect" : [ 337.166687, 114.0, 56.0, 20.0 ],
					"numoutlets" : 2
				}

			}
, 			{
				"box" : 				{
					"maxclass" : "number",
					"id" : "obj-98",
					"outlettype" : [ "int", "bang" ],
					"fontname" : "Arial",
					"numinlets" : 1,
					"fontsize" : 11.595187,
					"patching_rect" : [ 448.333313, 151.0, 36.0, 20.0 ],
					"numoutlets" : 2
				}

			}
, 			{
				"box" : 				{
					"maxclass" : "number",
					"id" : "obj-100",
					"outlettype" : [ "int", "bang" ],
					"fontname" : "Arial",
					"numinlets" : 1,
					"fontsize" : 11.595187,
					"patching_rect" : [ 411.333313, 151.0, 36.0, 20.0 ],
					"numoutlets" : 2
				}

			}
, 			{
				"box" : 				{
					"maxclass" : "newobj",
					"text" : "unpack",
					"id" : "obj-101",
					"outlettype" : [ "int", "int" ],
					"fontname" : "Arial",
					"numinlets" : 1,
					"fontsize" : 11.595187,
					"patching_rect" : [ 411.333313, 114.0, 56.0, 20.0 ],
					"numoutlets" : 2
				}

			}
, 			{
				"box" : 				{
					"maxclass" : "number",
					"id" : "obj-103",
					"outlettype" : [ "int", "bang" ],
					"fontname" : "Arial",
					"numinlets" : 1,
					"fontsize" : 11.595187,
					"patching_rect" : [ 485.5, 114.0, 50.0, 20.0 ],
					"numoutlets" : 2
				}

			}
, 			{
				"box" : 				{
					"maxclass" : "button",
					"id" : "obj-105",
					"outlettype" : [ "bang" ],
					"numinlets" : 1,
					"patching_rect" : [ 485.5, 203.0, 20.0, 20.0 ],
					"numoutlets" : 1
				}

			}
, 			{
				"box" : 				{
					"maxclass" : "newobj",
					"text" : "midiparse",
					"id" : "obj-106",
					"outlettype" : [ "", "", "", "int", "int", "int", "int" ],
					"fontname" : "Arial",
					"numinlets" : 1,
					"fontsize" : 11.595187,
					"patching_rect" : [ 263.0, 88.0, 464.0, 20.0 ],
					"numoutlets" : 7
				}

			}
, 			{
				"box" : 				{
					"maxclass" : "number",
					"id" : "obj-132",
					"outlettype" : [ "int", "bang" ],
					"fontname" : "Arial",
					"numinlets" : 1,
					"fontsize" : 11.595187,
					"patching_rect" : [ 708.0, 114.0, 50.0, 20.0 ],
					"numoutlets" : 2
				}

			}
, 			{
				"box" : 				{
					"maxclass" : "button",
					"id" : "obj-133",
					"outlettype" : [ "bang" ],
					"numinlets" : 1,
					"patching_rect" : [ 708.0, 203.0, 20.0, 20.0 ],
					"numoutlets" : 1
				}

			}
, 			{
				"box" : 				{
					"maxclass" : "number",
					"id" : "obj-134",
					"outlettype" : [ "int", "bang" ],
					"fontname" : "Arial",
					"numinlets" : 1,
					"fontsize" : 11.595187,
					"patching_rect" : [ 633.833374, 114.0, 50.0, 20.0 ],
					"numoutlets" : 2
				}

			}
, 			{
				"box" : 				{
					"maxclass" : "button",
					"id" : "obj-135",
					"outlettype" : [ "bang" ],
					"numinlets" : 1,
					"patching_rect" : [ 633.833374, 203.0, 20.0, 20.0 ],
					"numoutlets" : 1
				}

			}
, 			{
				"box" : 				{
					"maxclass" : "button",
					"id" : "obj-136",
					"outlettype" : [ "bang" ],
					"numinlets" : 1,
					"patching_rect" : [ 559.666626, 203.0, 20.0, 20.0 ],
					"numoutlets" : 1
				}

			}
, 			{
				"box" : 				{
					"maxclass" : "number",
					"id" : "obj-137",
					"outlettype" : [ "int", "bang" ],
					"fontname" : "Arial",
					"numinlets" : 1,
					"fontsize" : 11.595187,
					"patching_rect" : [ 559.666626, 114.0, 50.0, 20.0 ],
					"numoutlets" : 2
				}

			}
, 			{
				"box" : 				{
					"maxclass" : "button",
					"id" : "obj-138",
					"outlettype" : [ "bang" ],
					"numinlets" : 1,
					"patching_rect" : [ 337.166687, 203.0, 20.0, 20.0 ],
					"numoutlets" : 1
				}

			}
, 			{
				"box" : 				{
					"maxclass" : "button",
					"id" : "obj-139",
					"outlettype" : [ "bang" ],
					"numinlets" : 1,
					"patching_rect" : [ 411.333313, 203.0, 20.0, 20.0 ],
					"numoutlets" : 1
				}

			}
, 			{
				"box" : 				{
					"maxclass" : "comment",
					"text" : "Poly Pressure",
					"linecount" : 2,
					"id" : "obj-140",
					"fontname" : "Arial",
					"numinlets" : 1,
					"fontsize" : 11.595187,
					"patching_rect" : [ 326.0, 228.0, 55.0, 33.0 ],
					"numoutlets" : 0
				}

			}
, 			{
				"box" : 				{
					"maxclass" : "comment",
					"text" : "Note On/Off",
					"linecount" : 2,
					"id" : "obj-141",
					"fontname" : "Arial",
					"numinlets" : 1,
					"fontsize" : 11.595187,
					"patching_rect" : [ 254.0, 227.0, 43.0, 33.0 ],
					"numoutlets" : 0
				}

			}
, 			{
				"box" : 				{
					"maxclass" : "comment",
					"text" : "Control Change",
					"linecount" : 2,
					"id" : "obj-142",
					"fontname" : "Arial",
					"numinlets" : 1,
					"fontsize" : 11.595187,
					"patching_rect" : [ 414.0, 46.0, 49.0, 33.0 ],
					"numoutlets" : 0
				}

			}
, 			{
				"box" : 				{
					"maxclass" : "comment",
					"text" : "MIDI Channel",
					"linecount" : 2,
					"id" : "obj-143",
					"fontname" : "Arial",
					"numinlets" : 1,
					"fontsize" : 11.595187,
					"patching_rect" : [ 709.0, 230.0, 52.0, 33.0 ],
					"numoutlets" : 0
				}

			}
, 			{
				"box" : 				{
					"maxclass" : "comment",
					"text" : "After Touch",
					"linecount" : 2,
					"id" : "obj-144",
					"fontname" : "Arial",
					"numinlets" : 1,
					"fontsize" : 11.595187,
					"patching_rect" : [ 561.0, 225.0, 41.0, 33.0 ],
					"numoutlets" : 0
				}

			}
, 			{
				"box" : 				{
					"maxclass" : "comment",
					"text" : "Pgm Change",
					"linecount" : 2,
					"id" : "obj-145",
					"fontname" : "Arial",
					"numinlets" : 1,
					"fontsize" : 11.595187,
					"patching_rect" : [ 474.0, 226.0, 49.0, 33.0 ],
					"numoutlets" : 0
				}

			}
, 			{
				"box" : 				{
					"maxclass" : "comment",
					"text" : "Pitch Bend",
					"linecount" : 2,
					"id" : "obj-146",
					"fontname" : "Arial",
					"numinlets" : 1,
					"fontsize" : 11.595187,
					"patching_rect" : [ 633.0, 228.0, 37.0, 33.0 ],
					"numoutlets" : 0
				}

			}
 ],
		"lines" : [ 			{
				"patchline" : 				{
					"source" : [ "obj-109", 0 ],
					"destination" : [ "obj-35", 0 ],
					"hidden" : 0,
					"midpoints" : [  ]
				}

			}
, 			{
				"patchline" : 				{
					"source" : [ "obj-107", 0 ],
					"destination" : [ "obj-35", 0 ],
					"hidden" : 0,
					"midpoints" : [  ]
				}

			}
, 			{
				"patchline" : 				{
					"source" : [ "obj-2", 0 ],
					"destination" : [ "obj-35", 0 ],
					"hidden" : 0,
					"midpoints" : [  ]
				}

			}
, 			{
				"patchline" : 				{
					"source" : [ "obj-3", 0 ],
					"destination" : [ "obj-35", 0 ],
					"hidden" : 0,
					"midpoints" : [  ]
				}

			}
, 			{
				"patchline" : 				{
					"source" : [ "obj-4", 0 ],
					"destination" : [ "obj-35", 0 ],
					"hidden" : 0,
					"midpoints" : [  ]
				}

			}
, 			{
				"patchline" : 				{
					"source" : [ "obj-5", 0 ],
					"destination" : [ "obj-35", 0 ],
					"hidden" : 0,
					"midpoints" : [  ]
				}

			}
, 			{
				"patchline" : 				{
					"source" : [ "obj-6", 0 ],
					"destination" : [ "obj-35", 0 ],
					"hidden" : 0,
					"midpoints" : [  ]
				}

			}
, 			{
				"patchline" : 				{
					"source" : [ "obj-7", 0 ],
					"destination" : [ "obj-35", 0 ],
					"hidden" : 0,
					"midpoints" : [  ]
				}

			}
, 			{
				"patchline" : 				{
					"source" : [ "obj-8", 0 ],
					"destination" : [ "obj-35", 0 ],
					"hidden" : 0,
					"midpoints" : [  ]
				}

			}
, 			{
				"patchline" : 				{
					"source" : [ "obj-9", 0 ],
					"destination" : [ "obj-35", 0 ],
					"hidden" : 0,
					"midpoints" : [  ]
				}

			}
, 			{
				"patchline" : 				{
					"source" : [ "obj-10", 0 ],
					"destination" : [ "obj-35", 0 ],
					"hidden" : 0,
					"midpoints" : [  ]
				}

			}
, 			{
				"patchline" : 				{
					"source" : [ "obj-11", 0 ],
					"destination" : [ "obj-35", 0 ],
					"hidden" : 0,
					"midpoints" : [  ]
				}

			}
, 			{
				"patchline" : 				{
					"source" : [ "obj-12", 0 ],
					"destination" : [ "obj-35", 0 ],
					"hidden" : 0,
					"midpoints" : [  ]
				}

			}
, 			{
				"patchline" : 				{
					"source" : [ "obj-13", 0 ],
					"destination" : [ "obj-35", 0 ],
					"hidden" : 0,
					"midpoints" : [  ]
				}

			}
, 			{
				"patchline" : 				{
					"source" : [ "obj-14", 0 ],
					"destination" : [ "obj-35", 0 ],
					"hidden" : 0,
					"midpoints" : [  ]
				}

			}
, 			{
				"patchline" : 				{
					"source" : [ "obj-76", 0 ],
					"destination" : [ "obj-35", 0 ],
					"hidden" : 0,
					"midpoints" : [  ]
				}

			}
, 			{
				"patchline" : 				{
					"source" : [ "obj-109", 0 ],
					"destination" : [ "obj-32", 0 ],
					"hidden" : 0,
					"midpoints" : [  ]
				}

			}
, 			{
				"patchline" : 				{
					"source" : [ "obj-107", 0 ],
					"destination" : [ "obj-33", 0 ],
					"hidden" : 0,
					"midpoints" : [  ]
				}

			}
, 			{
				"patchline" : 				{
					"source" : [ "obj-2", 0 ],
					"destination" : [ "obj-30", 0 ],
					"hidden" : 0,
					"midpoints" : [  ]
				}

			}
, 			{
				"patchline" : 				{
					"source" : [ "obj-3", 0 ],
					"destination" : [ "obj-31", 0 ],
					"hidden" : 0,
					"midpoints" : [  ]
				}

			}
, 			{
				"patchline" : 				{
					"source" : [ "obj-4", 0 ],
					"destination" : [ "obj-27", 0 ],
					"hidden" : 0,
					"midpoints" : [  ]
				}

			}
, 			{
				"patchline" : 				{
					"source" : [ "obj-5", 0 ],
					"destination" : [ "obj-29", 0 ],
					"hidden" : 0,
					"midpoints" : [  ]
				}

			}
, 			{
				"patchline" : 				{
					"source" : [ "obj-6", 0 ],
					"destination" : [ "obj-25", 0 ],
					"hidden" : 0,
					"midpoints" : [  ]
				}

			}
, 			{
				"patchline" : 				{
					"source" : [ "obj-7", 0 ],
					"destination" : [ "obj-26", 0 ],
					"hidden" : 0,
					"midpoints" : [  ]
				}

			}
, 			{
				"patchline" : 				{
					"source" : [ "obj-8", 0 ],
					"destination" : [ "obj-23", 0 ],
					"hidden" : 0,
					"midpoints" : [  ]
				}

			}
, 			{
				"patchline" : 				{
					"source" : [ "obj-9", 0 ],
					"destination" : [ "obj-24", 0 ],
					"hidden" : 0,
					"midpoints" : [  ]
				}

			}
, 			{
				"patchline" : 				{
					"source" : [ "obj-10", 0 ],
					"destination" : [ "obj-21", 0 ],
					"hidden" : 0,
					"midpoints" : [  ]
				}

			}
, 			{
				"patchline" : 				{
					"source" : [ "obj-11", 0 ],
					"destination" : [ "obj-22", 0 ],
					"hidden" : 0,
					"midpoints" : [  ]
				}

			}
, 			{
				"patchline" : 				{
					"source" : [ "obj-12", 0 ],
					"destination" : [ "obj-19", 0 ],
					"hidden" : 0,
					"midpoints" : [  ]
				}

			}
, 			{
				"patchline" : 				{
					"source" : [ "obj-13", 0 ],
					"destination" : [ "obj-20", 0 ],
					"hidden" : 0,
					"midpoints" : [  ]
				}

			}
, 			{
				"patchline" : 				{
					"source" : [ "obj-28", 0 ],
					"destination" : [ "obj-74", 0 ],
					"hidden" : 0,
					"midpoints" : [  ]
				}

			}
, 			{
				"patchline" : 				{
					"source" : [ "obj-28", 0 ],
					"destination" : [ "obj-80", 0 ],
					"hidden" : 0,
					"midpoints" : [  ]
				}

			}
, 			{
				"patchline" : 				{
					"source" : [ "obj-28", 0 ],
					"destination" : [ "obj-82", 0 ],
					"hidden" : 0,
					"midpoints" : [  ]
				}

			}
, 			{
				"patchline" : 				{
					"source" : [ "obj-28", 0 ],
					"destination" : [ "obj-81", 0 ],
					"hidden" : 0,
					"midpoints" : [  ]
				}

			}
, 			{
				"patchline" : 				{
					"source" : [ "obj-28", 0 ],
					"destination" : [ "obj-84", 0 ],
					"hidden" : 0,
					"midpoints" : [  ]
				}

			}
, 			{
				"patchline" : 				{
					"source" : [ "obj-28", 0 ],
					"destination" : [ "obj-83", 0 ],
					"hidden" : 0,
					"midpoints" : [  ]
				}

			}
, 			{
				"patchline" : 				{
					"source" : [ "obj-28", 0 ],
					"destination" : [ "obj-86", 0 ],
					"hidden" : 0,
					"midpoints" : [  ]
				}

			}
, 			{
				"patchline" : 				{
					"source" : [ "obj-28", 0 ],
					"destination" : [ "obj-85", 0 ],
					"hidden" : 0,
					"midpoints" : [  ]
				}

			}
, 			{
				"patchline" : 				{
					"source" : [ "obj-28", 0 ],
					"destination" : [ "obj-95", 0 ],
					"hidden" : 0,
					"midpoints" : [  ]
				}

			}
, 			{
				"patchline" : 				{
					"source" : [ "obj-28", 0 ],
					"destination" : [ "obj-94", 0 ],
					"hidden" : 0,
					"midpoints" : [  ]
				}

			}
, 			{
				"patchline" : 				{
					"source" : [ "obj-28", 0 ],
					"destination" : [ "obj-93", 0 ],
					"hidden" : 0,
					"midpoints" : [  ]
				}

			}
, 			{
				"patchline" : 				{
					"source" : [ "obj-28", 0 ],
					"destination" : [ "obj-92", 0 ],
					"hidden" : 0,
					"midpoints" : [  ]
				}

			}
, 			{
				"patchline" : 				{
					"source" : [ "obj-28", 0 ],
					"destination" : [ "obj-91", 0 ],
					"hidden" : 0,
					"midpoints" : [  ]
				}

			}
, 			{
				"patchline" : 				{
					"source" : [ "obj-28", 0 ],
					"destination" : [ "obj-90", 0 ],
					"hidden" : 0,
					"midpoints" : [  ]
				}

			}
, 			{
				"patchline" : 				{
					"source" : [ "obj-28", 0 ],
					"destination" : [ "obj-89", 0 ],
					"hidden" : 0,
					"midpoints" : [  ]
				}

			}
, 			{
				"patchline" : 				{
					"source" : [ "obj-28", 0 ],
					"destination" : [ "obj-88", 0 ],
					"hidden" : 0,
					"midpoints" : [  ]
				}

			}
, 			{
				"patchline" : 				{
					"source" : [ "obj-41", 0 ],
					"destination" : [ "obj-74", 1 ],
					"hidden" : 0,
					"midpoints" : [  ]
				}

			}
, 			{
				"patchline" : 				{
					"source" : [ "obj-41", 0 ],
					"destination" : [ "obj-80", 1 ],
					"hidden" : 0,
					"midpoints" : [  ]
				}

			}
, 			{
				"patchline" : 				{
					"source" : [ "obj-41", 0 ],
					"destination" : [ "obj-82", 1 ],
					"hidden" : 0,
					"midpoints" : [  ]
				}

			}
, 			{
				"patchline" : 				{
					"source" : [ "obj-41", 0 ],
					"destination" : [ "obj-81", 1 ],
					"hidden" : 0,
					"midpoints" : [  ]
				}

			}
, 			{
				"patchline" : 				{
					"source" : [ "obj-41", 0 ],
					"destination" : [ "obj-84", 1 ],
					"hidden" : 0,
					"midpoints" : [  ]
				}

			}
, 			{
				"patchline" : 				{
					"source" : [ "obj-41", 0 ],
					"destination" : [ "obj-83", 1 ],
					"hidden" : 0,
					"midpoints" : [  ]
				}

			}
, 			{
				"patchline" : 				{
					"source" : [ "obj-41", 0 ],
					"destination" : [ "obj-86", 1 ],
					"hidden" : 0,
					"midpoints" : [  ]
				}

			}
, 			{
				"patchline" : 				{
					"source" : [ "obj-41", 0 ],
					"destination" : [ "obj-85", 1 ],
					"hidden" : 0,
					"midpoints" : [  ]
				}

			}
, 			{
				"patchline" : 				{
					"source" : [ "obj-41", 0 ],
					"destination" : [ "obj-95", 1 ],
					"hidden" : 0,
					"midpoints" : [  ]
				}

			}
, 			{
				"patchline" : 				{
					"source" : [ "obj-41", 0 ],
					"destination" : [ "obj-94", 1 ],
					"hidden" : 0,
					"midpoints" : [  ]
				}

			}
, 			{
				"patchline" : 				{
					"source" : [ "obj-41", 0 ],
					"destination" : [ "obj-93", 1 ],
					"hidden" : 0,
					"midpoints" : [  ]
				}

			}
, 			{
				"patchline" : 				{
					"source" : [ "obj-41", 0 ],
					"destination" : [ "obj-92", 1 ],
					"hidden" : 0,
					"midpoints" : [  ]
				}

			}
, 			{
				"patchline" : 				{
					"source" : [ "obj-41", 0 ],
					"destination" : [ "obj-91", 1 ],
					"hidden" : 0,
					"midpoints" : [  ]
				}

			}
, 			{
				"patchline" : 				{
					"source" : [ "obj-41", 0 ],
					"destination" : [ "obj-90", 1 ],
					"hidden" : 0,
					"midpoints" : [  ]
				}

			}
, 			{
				"patchline" : 				{
					"source" : [ "obj-41", 0 ],
					"destination" : [ "obj-89", 1 ],
					"hidden" : 0,
					"midpoints" : [  ]
				}

			}
, 			{
				"patchline" : 				{
					"source" : [ "obj-41", 0 ],
					"destination" : [ "obj-88", 1 ],
					"hidden" : 0,
					"midpoints" : [  ]
				}

			}
, 			{
				"patchline" : 				{
					"source" : [ "obj-1", 0 ],
					"destination" : [ "obj-106", 0 ],
					"hidden" : 0,
					"midpoints" : [  ]
				}

			}
, 			{
				"patchline" : 				{
					"source" : [ "obj-16", 0 ],
					"destination" : [ "obj-28", 0 ],
					"hidden" : 0,
					"midpoints" : [  ]
				}

			}
, 			{
				"patchline" : 				{
					"source" : [ "obj-28", 0 ],
					"destination" : [ "obj-39", 0 ],
					"hidden" : 0,
					"midpoints" : [  ]
				}

			}
, 			{
				"patchline" : 				{
					"source" : [ "obj-16", 1 ],
					"destination" : [ "obj-41", 0 ],
					"hidden" : 0,
					"midpoints" : [  ]
				}

			}
, 			{
				"patchline" : 				{
					"source" : [ "obj-87", 1 ],
					"destination" : [ "obj-42", 0 ],
					"hidden" : 0,
					"midpoints" : [  ]
				}

			}
, 			{
				"patchline" : 				{
					"source" : [ "obj-87", 0 ],
					"destination" : [ "obj-67", 0 ],
					"hidden" : 0,
					"midpoints" : [  ]
				}

			}
, 			{
				"patchline" : 				{
					"source" : [ "obj-67", 0 ],
					"destination" : [ "obj-138", 0 ],
					"hidden" : 0,
					"midpoints" : [  ]
				}

			}
, 			{
				"patchline" : 				{
					"source" : [ "obj-101", 1 ],
					"destination" : [ "obj-98", 0 ],
					"hidden" : 0,
					"midpoints" : [  ]
				}

			}
, 			{
				"patchline" : 				{
					"source" : [ "obj-101", 0 ],
					"destination" : [ "obj-100", 0 ],
					"hidden" : 0,
					"midpoints" : [  ]
				}

			}
, 			{
				"patchline" : 				{
					"source" : [ "obj-100", 0 ],
					"destination" : [ "obj-139", 0 ],
					"hidden" : 0,
					"midpoints" : [  ]
				}

			}
, 			{
				"patchline" : 				{
					"source" : [ "obj-106", 3 ],
					"destination" : [ "obj-103", 0 ],
					"hidden" : 0,
					"midpoints" : [ 495.0, 110.0, 495.0, 110.0 ]
				}

			}
, 			{
				"patchline" : 				{
					"source" : [ "obj-103", 0 ],
					"destination" : [ "obj-105", 0 ],
					"hidden" : 0,
					"midpoints" : [  ]
				}

			}
, 			{
				"patchline" : 				{
					"source" : [ "obj-106", 6 ],
					"destination" : [ "obj-132", 0 ],
					"hidden" : 0,
					"midpoints" : [  ]
				}

			}
, 			{
				"patchline" : 				{
					"source" : [ "obj-132", 0 ],
					"destination" : [ "obj-133", 0 ],
					"hidden" : 0,
					"midpoints" : [  ]
				}

			}
, 			{
				"patchline" : 				{
					"source" : [ "obj-106", 5 ],
					"destination" : [ "obj-134", 0 ],
					"hidden" : 0,
					"midpoints" : [  ]
				}

			}
, 			{
				"patchline" : 				{
					"source" : [ "obj-134", 0 ],
					"destination" : [ "obj-135", 0 ],
					"hidden" : 0,
					"midpoints" : [  ]
				}

			}
, 			{
				"patchline" : 				{
					"source" : [ "obj-106", 4 ],
					"destination" : [ "obj-137", 0 ],
					"hidden" : 0,
					"midpoints" : [ 569.166687, 110.0, 569.166626, 110.0 ]
				}

			}
, 			{
				"patchline" : 				{
					"source" : [ "obj-137", 0 ],
					"destination" : [ "obj-136", 0 ],
					"hidden" : 0,
					"midpoints" : [  ]
				}

			}
, 			{
				"patchline" : 				{
					"source" : [ "obj-106", 0 ],
					"destination" : [ "obj-16", 0 ],
					"hidden" : 0,
					"midpoints" : [  ]
				}

			}
, 			{
				"patchline" : 				{
					"source" : [ "obj-106", 1 ],
					"destination" : [ "obj-87", 0 ],
					"hidden" : 0,
					"midpoints" : [ 346.666656, 110.0, 346.666687, 110.0 ]
				}

			}
, 			{
				"patchline" : 				{
					"source" : [ "obj-106", 2 ],
					"destination" : [ "obj-101", 0 ],
					"hidden" : 0,
					"midpoints" : [ 420.833344, 110.0, 420.833313, 110.0 ]
				}

			}
, 			{
				"patchline" : 				{
					"source" : [ "obj-74", 0 ],
					"destination" : [ "obj-76", 0 ],
					"hidden" : 0,
					"midpoints" : [  ]
				}

			}
, 			{
				"patchline" : 				{
					"source" : [ "obj-76", 0 ],
					"destination" : [ "obj-96", 0 ],
					"hidden" : 0,
					"midpoints" : [  ]
				}

			}
, 			{
				"patchline" : 				{
					"source" : [ "obj-80", 0 ],
					"destination" : [ "obj-14", 0 ],
					"hidden" : 0,
					"midpoints" : [  ]
				}

			}
, 			{
				"patchline" : 				{
					"source" : [ "obj-14", 0 ],
					"destination" : [ "obj-97", 0 ],
					"hidden" : 0,
					"midpoints" : [  ]
				}

			}
, 			{
				"patchline" : 				{
					"source" : [ "obj-82", 0 ],
					"destination" : [ "obj-13", 0 ],
					"hidden" : 0,
					"midpoints" : [  ]
				}

			}
, 			{
				"patchline" : 				{
					"source" : [ "obj-81", 0 ],
					"destination" : [ "obj-12", 0 ],
					"hidden" : 0,
					"midpoints" : [  ]
				}

			}
, 			{
				"patchline" : 				{
					"source" : [ "obj-84", 0 ],
					"destination" : [ "obj-11", 0 ],
					"hidden" : 0,
					"midpoints" : [  ]
				}

			}
, 			{
				"patchline" : 				{
					"source" : [ "obj-83", 0 ],
					"destination" : [ "obj-10", 0 ],
					"hidden" : 0,
					"midpoints" : [  ]
				}

			}
, 			{
				"patchline" : 				{
					"source" : [ "obj-86", 0 ],
					"destination" : [ "obj-9", 0 ],
					"hidden" : 0,
					"midpoints" : [  ]
				}

			}
, 			{
				"patchline" : 				{
					"source" : [ "obj-85", 0 ],
					"destination" : [ "obj-8", 0 ],
					"hidden" : 0,
					"midpoints" : [  ]
				}

			}
, 			{
				"patchline" : 				{
					"source" : [ "obj-95", 0 ],
					"destination" : [ "obj-7", 0 ],
					"hidden" : 0,
					"midpoints" : [  ]
				}

			}
, 			{
				"patchline" : 				{
					"source" : [ "obj-94", 0 ],
					"destination" : [ "obj-6", 0 ],
					"hidden" : 0,
					"midpoints" : [  ]
				}

			}
, 			{
				"patchline" : 				{
					"source" : [ "obj-93", 0 ],
					"destination" : [ "obj-5", 0 ],
					"hidden" : 0,
					"midpoints" : [  ]
				}

			}
, 			{
				"patchline" : 				{
					"source" : [ "obj-92", 0 ],
					"destination" : [ "obj-4", 0 ],
					"hidden" : 0,
					"midpoints" : [  ]
				}

			}
, 			{
				"patchline" : 				{
					"source" : [ "obj-91", 0 ],
					"destination" : [ "obj-3", 0 ],
					"hidden" : 0,
					"midpoints" : [  ]
				}

			}
, 			{
				"patchline" : 				{
					"source" : [ "obj-90", 0 ],
					"destination" : [ "obj-2", 0 ],
					"hidden" : 0,
					"midpoints" : [  ]
				}

			}
, 			{
				"patchline" : 				{
					"source" : [ "obj-89", 0 ],
					"destination" : [ "obj-107", 0 ],
					"hidden" : 0,
					"midpoints" : [  ]
				}

			}
, 			{
				"patchline" : 				{
					"source" : [ "obj-88", 0 ],
					"destination" : [ "obj-109", 0 ],
					"hidden" : 0,
					"midpoints" : [  ]
				}

			}
 ]
	}

}
